<?xml version="1.0" encoding="UTF-8"?>
<svg width="500px" height="500px" viewBox="0 0 500 500" version="1.1" xmlns="http://www.w3.org/2000/svg" xmlns:xlink="http://www.w3.org/1999/xlink">
    <title>CloudNatix-Symbol</title>
    <g id="CloudNatix-Symbol" stroke="none" stroke-width="1" fill="none" fill-rule="evenodd">
        <g id="Group" transform="translate(0.000000, 96.000000)">
            <path d="M68.9839919,300.651182 C106.455174,235.666174 143.926356,170.681166 181.397539,105.679899 C192.599929,144.68391 203.980907,183.541596 215.183297,222.610642 L290.677663,91.6813767 L279.183037,85.8120777 L302.545703,70.6104307 L325.892132,55.4087838 C307.383836,22.3553632 272.039484,0 231.467351,0 C177.111407,0 132.107023,40.142103 124.395233,92.4292652 C119.118745,91.6326014 113.712375,91.2261402 108.224827,91.2261402 C48.4462772,91.2261402 0,139.741343 0,199.604941 C0,245.616343 28.6066825,284.913007 68.9839919,300.651182 Z" id="Path" fill="#2491EB"></path>
            <path d="M315.631393,104.41174 L207.114329,292.635769 L173.328571,175.705025 L97.3633795,307.463471 C100.935156,307.821157 104.571874,308 108.241062,308 L411.387473,308 C460.337046,308 500,268.264358 500,219.261402 C500,177.200802 470.776374,141.985008 431.56801,132.831503 C431.81154,130.539062 431.941423,128.214105 431.941423,125.85663 C431.941423,89.6815878 402.652856,60.3350929 366.512972,60.3350929 C354.109166,60.3350929 342.517128,63.7818834 332.646037,69.7975084 C330.746501,64.822424 328.506023,60.0261824 325.940838,55.4250422 L327.40202,83.2920186 L328.863201,111.158995 L315.631393,104.41174 Z" id="Path" fill="#616161"></path>
        </g>
    </g>
</svg>